<?xml version="1.0" standalone="no"?>
<!DOCTYPE svg PUBLIC "-//W3C//DTD SVG 1.1//EN" "http://www.w3.org/Graphics/SVG/1.1/DTD/svg11.dtd" >
<svg xmlns="http://www.w3.org/2000/svg">
<metadata></metadata>
<defs>
<font id="pixelsplitterregular" horiz-adv-x="1626" >
<font-face units-per-em="2048" ascent="1638" descent="-410" />
<missing-glyph horiz-adv-x="454" />
<glyph horiz-adv-x="0" />
<glyph horiz-adv-x="682" />
<glyph horiz-adv-x="1189" d="M49 1270q0 -25 17.5 -43.5t44.5 -18.5h163q27 0 44.5 18.5t17.5 43.5v166q0 25 -17.5 43t-44.5 18h-163q-27 0 -44.5 -18.5t-17.5 -42.5v-166zM164 1337v31q0 12 12 12h33q12 0 12 -12v-31q0 -12 -12 -12h-33q-12 0 -12 12z" />
<glyph horiz-adv-x="1189" d="M164 1337v31q0 12 12 12h33q12 0 12 -12v-31q0 -12 -12 -12h-33q-12 0 -12 12zM983 1337v31q0 12 12 12h33q12 0 12 -12v-31q0 -12 -12 -12h-33q-12 0 -12 12z" />
<glyph unicode=" "  horiz-adv-x="454" />
<glyph unicode="&#x09;" horiz-adv-x="454" />
<glyph unicode="&#xa0;" horiz-adv-x="454" />
<glyph unicode="!" horiz-adv-x="589" d="M152 61q0 -25 17 -43t44 -18h164q27 0 44 18.5t17 42.5v166q0 25 -17.5 43.5t-43.5 18.5h-164q-27 0 -44 -18.5t-17 -43.5v-166zM152 440q0 -27 17 -44t44 -17h164q27 0 44 17.5t17 43.5v1110q0 25 -17.5 43.5t-43.5 18.5h-164q-27 0 -44 -18.5t-17 -43.5v-1110z" />
<glyph unicode="&#x22;" horiz-adv-x="612" d="M152 1382q0 -25 18 -43t43 -18h186q25 0 43.5 18.5t18.5 42.5v355q0 25 -18.5 43t-43.5 18h-186q-25 0 -43 -18.5t-18 -42.5v-355z" />
<glyph unicode="#" horiz-adv-x="1189" d="M49 1270q0 -25 17.5 -43.5t44.5 -18.5h163q27 0 44.5 18.5t17.5 43.5v166q0 25 -17.5 43t-44.5 18h-163q-27 0 -44.5 -18.5t-17.5 -42.5v-166zM164 1337v31q0 12 12 12h33q12 0 12 -12v-31q0 -12 -12 -12h-33q-12 0 -12 12zM459 61q0 -25 17.5 -43t43.5 -18h164 q27 0 44 18t17 43v166q0 25 -17 43.5t-44 18.5h-164q-27 0 -44 -18.5t-17 -43.5v-166zM459 61v166q0 25 17.5 43.5t43.5 18.5h164q27 0 44 -18.5t17 -43.5v-166q0 -25 -17 -43t-44 -18h-164q-27 0 -44 18.5t-17 42.5zM459 61q0 -25 17.5 -43t43.5 -18h164q27 0 44 18t17 43 v166q0 25 -17 43.5t-44 18.5h-164q-27 0 -44 -18.5t-17 -43.5v-166zM459 61v166q0 25 17.5 43.5t43.5 18.5h164q27 0 44 -18.5t17 -43.5v-166q0 -25 -17 -43t-44 -18h-164q-27 0 -44 18.5t-17 42.5zM459 61q0 -25 17.5 -43t43.5 -18h164q27 0 44 18t17 43v166q0 25 -17 43.5 t-44 18.5h-164q-27 0 -44 -18.5t-17 -43.5v-166zM459 440q0 -27 17.5 -44t43.5 -17h164q27 0 44 17t17 44v1110q0 25 -17 43.5t-44 18.5h-164q-27 0 -44 -18.5t-17 -43.5v-1110zM868 1270q0 -25 17.5 -43.5t44.5 -18.5h164q27 0 44 18.5t17 43.5v166q0 25 -17.5 43t-43.5 18 h-164q-27 0 -44.5 -18.5t-17.5 -42.5v-166zM983 1337v31q0 12 12 12h33q12 0 12 -12v-31q0 -12 -12 -12h-33q-12 0 -12 12z" />
<glyph unicode="$" horiz-adv-x="1419" d="M186 428q0 -25 18.5 -43t43.5 -18h305v-117q0 -25 18.5 -43.5t42.5 -18.5h191q25 0 43 18.5t18 43.5v117h127q25 0 43.5 18t18.5 43v127h116q25 0 43.5 18.5t18.5 44.5v177q0 27 -18.5 45t-43.5 18h-127v137q0 27 -18 44.5t-45 17.5h-102v67h292q25 0 43.5 18.5 t18.5 43.5v190q0 25 -18.5 43.5t-43.5 18.5h-305v114q0 27 -18.5 45.5t-42.5 18.5h-191q-25 0 -43 -18.5t-18 -45.5v-114h-127q-25 0 -43 -18.5t-18 -43.5v-127h-117q-25 0 -43.5 -18.5t-18.5 -44.5v-176q0 -27 18.5 -45.5t43.5 -18.5h127v-139q0 -27 18.5 -44.5t42.5 -17.5 h107v-65h-295q-25 0 -43.5 -18.5t-18.5 -43.5v-190zM487 1057v55h56v-55h-56zM879 690v55h53v-55h-53z" />
<glyph unicode="%" d="M195 250q0 -25 18 -43.5t45 -18.5h176q27 0 45.5 18.5t18.5 43.5v117h127q25 0 43 18t18 43v127h127q25 0 43 18.5t18 44.5v127h127q27 0 44.5 17.5t17.5 44.5v129h131q25 0 43 18.5t18 42.5v127h113q27 0 45.5 18.5t18.5 43.5v178q0 27 -18.5 44t-45.5 17h-174 q-27 0 -45.5 -17t-18.5 -44v-115h-129q-25 0 -43 -18.5t-18 -44.5v-127h-127q-25 0 -43 -17.5t-18 -44.5v-129h-127q-27 0 -44.5 -18.5t-17.5 -42.5v-127h-129q-25 0 -43 -18.5t-18 -43.5v-129h-115q-27 0 -45 -17t-18 -44v-178zM195 1198q0 -27 18 -44t45 -17h354 q27 0 44.5 17t17.5 44v354q0 27 -17.5 45.5t-44.5 18.5h-354q-27 0 -45 -18.5t-18 -45.5v-354zM330 1298v156q0 27 26 27h156q27 0 27 -27v-156q0 -27 -27 -26h-156q-27 0 -26 26zM954 61q0 -25 17.5 -43t44.5 -18h352q27 0 45.5 18t18.5 43v357q0 25 -18.5 43t-45.5 18 h-352q-27 0 -44.5 -18.5t-17.5 -42.5v-357zM1104 172v156q0 27 26 26h156q27 0 27 -26v-156q0 -27 -27 -27h-156q-27 0 -26 27z" />
<glyph unicode="&#x26;" d="M195 250q0 -25 18 -43.5t45 -18.5h127v-127q0 -25 17.5 -43t43.5 -18h555q27 0 44.5 18.5t17.5 42.5v117h80v-117q0 -25 18.5 -43t42.5 -18h164q27 0 45.5 18.5t18.5 42.5v166q0 27 -18.5 45.5t-45.5 18.5h-113v76h113q12 0 24.5 20.5t20.5 48t13.5 55t5.5 39.5v179 q0 27 -18.5 44t-45.5 17h-174q-27 0 -45.5 -17.5t-18.5 -43.5v-117h-77v117q0 27 -18.5 44t-43.5 17h-117v84h117q25 0 43.5 18.5t18.5 42.5v449q0 27 -18.5 44t-43.5 17h-127v127q0 27 -18.5 45.5t-42.5 18.5h-369q-25 0 -43 -18.5t-18 -45.5v-114h-115q-27 0 -45 -18.5 t-18 -43.5v-448q0 -27 18 -45.5t45 -18.5h115v-82h-115q-27 0 -45 -18.5t-18 -42.5v-471zM498 301v356h264v-114q0 -12 1 -40t4 -55.5t10 -48t20 -20.5h143v-78h-442zM498 977v338h254v-338h-254z" />
<glyph unicode="'" horiz-adv-x="1419" d="M186 629q0 -25 18.5 -43.5t43.5 -18.5h923q25 0 43.5 18.5t18.5 43.5v166q0 27 -18.5 45t-43.5 18h-923q-25 0 -43.5 -18.5t-18.5 -44.5v-166z" />
<glyph unicode="(" horiz-adv-x="1003" d="M168 440q0 -27 18.5 -44t42.5 -17h129v-129q0 -25 17.5 -43.5t44.5 -18.5h127v-127q0 -25 18.5 -43t42.5 -18h166q25 0 43.5 18.5t18.5 42.5v166q0 25 -18.5 43.5t-43.5 18.5h-129v127q0 25 -17.5 43t-43.5 18h-115v645h129q25 0 43 18.5t18 43.5v129h115q25 0 43.5 17.5 t18.5 43.5v176q0 25 -18.5 43.5t-43.5 18.5h-176q-27 0 -45 -18.5t-18 -43.5v-114h-127q-25 0 -43.5 -18.5t-18.5 -43.5v-127h-117q-25 0 -43 -18.5t-18 -44.5v-744z" />
<glyph unicode=")" horiz-adv-x="1003" d="M168 61q0 -25 18.5 -43t42.5 -18h179q27 0 44 18.5t17 42.5v117h129q25 0 43 18.5t18 43.5v127h115q25 0 43.5 18t18.5 43v743q0 27 -18.5 44.5t-43.5 17.5h-129v127q0 27 -17.5 45t-43.5 18h-127v127q0 25 -18.5 43.5t-43.5 18.5h-166q-25 0 -43 -18.5t-18 -43.5v-166 q0 -25 18.5 -43t42.5 -18h129v-127q0 -27 17.5 -44t44.5 -17h115v-646h-127q-25 0 -43.5 -17t-18.5 -44v-127h-117q-25 0 -43 -18.5t-18 -42.5v-179z" />
<glyph unicode="*" d="M195 1042q0 -25 18 -43t45 -18h305v-78h-117q-27 0 -44 -17.5t-17 -43.5v-178q0 -25 17.5 -43.5t43.5 -18.5h179q25 0 43 18.5t18 43.5v116h268v-116q0 -25 17.5 -43.5t44.5 -18.5h164q27 0 44 18.5t17 43.5v167q0 25 -17.5 43.5t-43.5 18.5h-117v76h305q27 0 45.5 18.5 t18.5 44.5v115q0 27 -18.5 45t-45.5 18h-305v76h117q27 0 44 18.5t17 43.5v178q0 25 -17.5 43t-43.5 18h-179q-25 0 -43 -18.5t-18 -42.5v-117h-266v117q0 25 -17.5 43t-44.5 18h-166q-27 0 -44 -18.5t-17 -42.5v-164q0 -27 17.5 -45.5t43.5 -18.5h117v-77h-305 q-27 0 -45 -18.5t-18 -43.5v-117z" />
<glyph unicode="+" horiz-adv-x="1419" d="M186 629q0 -25 18.5 -43.5t43.5 -18.5h330v-303q0 -27 18 -44t43 -17h168q25 0 43 17.5t18 43.5v303h303q25 0 43.5 18.5t18.5 43.5v166q0 27 -18.5 45t-43.5 18h-303v328q0 27 -18.5 45t-42.5 18h-168q-25 0 -43 -18.5t-18 -44.5v-328h-330q-25 0 -43.5 -18.5 t-18.5 -44.5v-166z" />
<glyph unicode="," horiz-adv-x="612" d="M152 -152q0 -27 18 -44t43 -17h186q25 0 43.5 17.5t18.5 43.5v558q0 27 -18.5 45t-43.5 18h-186q-25 0 -43 -18.5t-18 -44.5v-558z" />
<glyph unicode="-" horiz-adv-x="1419" d="M186 739q0 -25 18.5 -43t43.5 -18h923q25 0 43.5 18.5t18.5 42.5v166q0 27 -18.5 45.5t-43.5 18.5h-923q-25 0 -43.5 -18.5t-18.5 -45.5v-166z" />
<glyph unicode="." horiz-adv-x="796" d="M160 61q0 -25 18.5 -43t42.5 -18h354q25 0 43.5 18.5t18.5 42.5v355q0 25 -18.5 43t-43.5 18h-354q-25 0 -43 -18.5t-18 -42.5v-355z" />
<glyph unicode="/" d="M195 250q0 -25 18 -43.5t45 -18.5h176q27 0 45.5 18.5t18.5 43.5v117h127q25 0 43 18t18 43v127h127q25 0 43 18.5t18 44.5v127h127q27 0 44.5 17.5t17.5 44.5v127h131q25 0 43 18.5t18 42.5v129h113q27 0 45.5 18.5t18.5 43.5v176q0 27 -18.5 44t-45.5 17h-174 q-27 0 -45.5 -17t-18.5 -44v-113h-129q-25 0 -43 -18.5t-18 -44.5v-129h-127q-25 0 -43 -17.5t-18 -44.5v-127h-127q-27 0 -44.5 -18.5t-17.5 -42.5v-127h-129q-25 0 -43 -18.5t-18 -43.5v-129h-115q-27 0 -45 -17t-18 -44v-178z" />
<glyph unicode="0" d="M195 240q0 -25 18 -43.5t45 -18.5h115v-117q0 -25 18.5 -43t42.5 -18h760q25 0 43 18.5t18 42.5v117h113q27 0 45.5 18.5t18.5 43.5v1136q0 25 -18.5 43.5t-45.5 18.5h-113v114q0 27 -18 45.5t-43 18.5h-760q-25 0 -43 -18.5t-18 -45.5v-114h-115q-27 0 -45 -18.5 t-18 -43.5v-1136zM508 502v801h422v-54h-117q-25 0 -43 -18.5t-18 -44.5v-318h-127q-27 0 -44.5 -18.5t-17.5 -42.5v-305h-55zM696 313v54h117q25 0 43 18t18 43v317h127q27 0 44.5 17.5t17.5 44.5v305h55v-799h-422z" />
<glyph unicode="1" horiz-adv-x="1419" d="M186 61q0 -25 18.5 -43t43.5 -18h923q25 0 43.5 18.5t18.5 42.5v179q0 25 -18.5 43t-43.5 18h-305v1251q0 27 -18.5 45.5t-42.5 18.5h-191q-25 0 -43 -18.5t-18 -45.5v-114h-127q-25 0 -43 -18.5t-18 -43.5v-127h-117q-25 0 -43.5 -18.5t-18.5 -44.5v-176 q0 -27 18.5 -45.5t43.5 -18.5h178q25 0 43 18.5t18 45.5v104h56v-813h-295q-25 0 -43.5 -18.5t-18.5 -42.5v-179z" />
<glyph unicode="2" d="M195 61q0 -25 18 -43t45 -18h1110q27 0 45.5 18.5t18.5 42.5v179q0 25 -18.5 43t-45.5 18h-672v66h117q25 0 43 18t18 43v127h127q27 0 44.5 18.5t17.5 44.5v127h131q25 0 43 17.5t18 44.5v129h113q27 0 45.5 18.5t18.5 42.5v367q0 27 -18.5 44t-45.5 17h-127v127 q0 27 -17.5 45.5t-43.5 18.5h-746q-25 0 -43 -18.5t-18 -45.5v-114h-115q-27 0 -45 -18.5t-18 -43.5v-178q0 -27 18 -44t45 -17h176q27 0 45.5 17t18.5 44v117h632v-256h-129q-25 0 -43 -17.5t-18 -44.5v-129h-127q-25 0 -43 -18.5t-18 -42.5v-127h-127q-27 0 -44.5 -18.5 t-17.5 -43.5v-129h-129q-25 0 -43 -17t-18 -44v-127h-115q-27 0 -45 -18.5t-18 -42.5v-179z" />
<glyph unicode="3" d="M195 250q0 -25 18 -43.5t45 -18.5h127v-127q0 -25 17.5 -43t43.5 -18h748q25 0 43 18.5t18 42.5v117h113q27 0 45.5 18.5t18.5 43.5v555q0 27 -18.5 45t-45.5 18h-113v78h113q27 0 45.5 18.5t18.5 42.5v367q0 27 -18.5 44t-45.5 17h-127v127q0 27 -17.5 45.5t-43.5 18.5 h-746q-25 0 -43 -18.5t-18 -45.5v-114h-115q-27 0 -45 -18.5t-18 -43.5v-178q0 -27 18 -44t45 -17h176q27 0 45.5 17t18.5 44v117h632v-256h-495q-25 0 -43.5 -17.5t-18.5 -44.5v-178q0 -25 18.5 -43t43.5 -18h495v-457h-645v117q0 25 -18 43t-43 18h-166q-27 0 -45 -18.5 t-18 -42.5v-168z" />
<glyph unicode="4" d="M195 428q0 -25 18 -43t45 -18h872v-306q0 -25 18.5 -43t45.5 -18h174q27 0 45.5 18.5t18.5 42.5v1491q0 27 -18.5 45.5t-45.5 18.5h-367q-25 0 -43 -18.5t-18 -45.5v-114h-127q-25 0 -43 -18.5t-18 -43.5v-127h-127q-27 0 -44.5 -18.5t-17.5 -44.5v-127h-129 q-25 0 -43 -17.5t-18 -44.5v-129h-115q-27 0 -45 -18.5t-18 -42.5v-379zM508 690v55h117q25 0 43 17.5t18 44.5v129h127q25 0 43 18.5t18 42.5v127h127q27 0 44.5 18.5t17.5 43.5v117h55v-613h-610z" />
<glyph unicode="5" d="M195 250q0 -25 18 -43.5t45 -18.5h127v-127q0 -25 17.5 -43t43.5 -18h748q25 0 43 18.5t18 42.5v117h113q27 0 45.5 18.5t18.5 43.5v555q0 27 -18.5 45t-45.5 18h-127v139q0 27 -17.5 44.5t-43.5 17.5h-672v256h672q27 0 44 17.5t17 43.5v176q0 27 -17.5 45.5t-43.5 18.5 h-922q-27 0 -45 -18.5t-18 -45.5v-733q0 -25 18 -43t45 -18h872v-457h-645v117q0 25 -18 43t-43 18h-166q-27 0 -45 -18.5t-18 -42.5v-168z" />
<glyph unicode="6" d="M195 250q0 -25 18 -43.5t45 -18.5h127v-127q0 -25 17.5 -43t43.5 -18h748q25 0 43 18.5t18 42.5v117h113q27 0 45.5 18.5t18.5 43.5v555q0 27 -18.5 45t-45.5 18h-127v139q0 27 -17.5 44.5t-43.5 17.5h-672v256h672q27 0 44 17.5t17 43.5v176q0 27 -17.5 45.5t-43.5 18.5 h-746q-25 0 -43 -18.5t-18 -45.5v-114h-115q-27 0 -45 -18.5t-18 -43.5v-1126zM498 301v444h632v-444h-632z" />
<glyph unicode="7" d="M195 1376q0 -27 18 -44t45 -17h860v-256h-117q-25 0 -43 -17.5t-18 -44.5v-129h-127q-25 0 -43 -18.5t-18 -42.5v-127h-127q-27 0 -44.5 -18.5t-17.5 -43.5v-129h-117q-27 0 -44 -17t-17 -44v-367q0 -25 17.5 -43t43.5 -18h179q25 0 43 18.5t18 42.5v306h127q25 0 43 18 t18 43v127h127q27 0 44.5 18.5t17.5 44.5v127h131q25 0 43 17.5t18 44.5v129h113q27 0 45.5 18.5t18.5 42.5v555q0 27 -18.5 45.5t-45.5 18.5h-1110q-27 0 -45 -18.5t-18 -45.5v-176z" />
<glyph unicode="8" d="M195 250q0 -25 18 -43.5t45 -18.5h127v-127q0 -25 17.5 -43t43.5 -18h748q25 0 43 18.5t18 42.5v117h113q27 0 45.5 18.5t18.5 43.5v555q0 27 -18.5 45t-45.5 18h-113v78h113q27 0 45.5 18.5t18.5 42.5v367q0 27 -18.5 44t-45.5 17h-127v127q0 27 -17.5 45.5t-43.5 18.5 h-746q-25 0 -43 -18.5t-18 -45.5v-114h-115q-27 0 -45 -18.5t-18 -43.5v-366q0 -27 18 -45.5t45 -18.5h115v-78h-115q-27 0 -45 -18.5t-18 -42.5v-557zM498 301v444h632v-444h-632zM498 1059v256h632v-256h-632z" />
<glyph unicode="9" d="M195 819q0 -25 18 -43t45 -18h127v-140q0 -27 17.5 -45t43.5 -18h672v-254h-672q-27 0 -44 -18.5t-17 -42.5v-179q0 -25 17.5 -43t43.5 -18h748q25 0 43 18.5t18 42.5v117h113q27 0 45.5 18.5t18.5 43.5v1124q0 27 -18.5 44t-45.5 17h-127v127q0 27 -17.5 45.5 t-43.5 18.5h-746q-25 0 -43 -18.5t-18 -45.5v-114h-115q-27 0 -45 -18.5t-18 -43.5v-557zM498 868v447h632v-447h-632z" />
<glyph unicode=":" horiz-adv-x="796" d="M160 47q0 -25 18.5 -43t42.5 -18h354q25 0 43.5 18.5t18.5 42.5v354q0 27 -18.5 44.5t-43.5 17.5h-354q-25 0 -43 -17.5t-18 -44.5v-354zM160 614q0 -25 18.5 -43t42.5 -18h354q25 0 43.5 18.5t18.5 42.5v355q0 27 -18.5 44t-43.5 17h-354q-25 0 -43 -17.5t-18 -43.5 v-355z" />
<glyph unicode=";" horiz-adv-x="604" d="M152 782q0 -27 18 -44t43 -17h176q25 0 43.5 17.5t18.5 43.5v176q0 25 -18.5 43.5t-43.5 18.5h-176q-25 0 -43 -18.5t-18 -43.5v-176zM154 51q0 -25 18 -43t43 -18h176q25 0 43.5 18.5t18.5 42.5v498q0 25 -18.5 43t-43.5 18h-176q-25 0 -43 -18.5t-18 -42.5v-498z" />
<glyph unicode="&#x3c;" horiz-adv-x="1212" d="M178 631q0 -25 17.5 -43.5t44.5 -18.5h127v-127q0 -27 18 -44t43 -17h129v-131q0 -25 18.5 -43.5t42.5 -18.5h130v-127q0 -25 17 -43t44 -18h164q27 0 44 18.5t17 42.5v166q0 27 -17.5 45.5t-43.5 18.5h-127v127q0 25 -18.5 43t-43.5 18h-127v127q0 27 -18 44.5t-43 17.5 h-117v80h127q25 0 43.5 17t18.5 44v127h127q27 0 44 18.5t17 42.5v127h117q27 0 44 18.5t17 43.5v178q0 27 -17.5 44t-43.5 17h-178q-25 0 -43.5 -17t-18.5 -44v-115h-127q-25 0 -43 -18.5t-18 -44.5v-127h-127q-27 0 -44.5 -17.5t-17.5 -44.5v-127h-116q-27 0 -44.5 -18 t-17.5 -43v-178z" />
<glyph unicode="=" horiz-adv-x="1423" d="M186 457q0 -25 18.5 -43.5t43.5 -18.5h923q25 0 43.5 18.5t18.5 43.5v166q0 27 -18.5 44t-43.5 17h-923q-25 0 -43.5 -17.5t-18.5 -43.5v-166zM190 813q0 -27 18.5 -45t43.5 -18h924q25 0 43 18t18 45v166q0 25 -18.5 43t-42.5 18h-924q-25 0 -43.5 -18t-18.5 -43v-166z " />
<glyph unicode="&#x3e;" horiz-adv-x="1212" d="M178 61q0 -25 17.5 -43t44.5 -18h178q25 0 43 18.5t18 42.5v117h127q25 0 43.5 18.5t18.5 43.5v127h127q27 0 44 18t17 43v127h117q27 0 44 18.5t17 44.5v177q0 27 -17.5 45t-43.5 18h-127v129q0 25 -18.5 43.5t-43.5 18.5h-127v127q0 25 -18 43t-43 18h-129v127 q0 27 -17.5 44t-43.5 17h-166q-27 0 -44.5 -17t-17.5 -44v-164q0 -27 17.5 -44t44.5 -17h127v-129q0 -27 18 -45.5t43 -18.5h129v-127q0 -25 18.5 -43t42.5 -18h115v-78h-127q-25 0 -43 -18.5t-18 -43.5v-129h-127q-27 0 -44.5 -17t-17.5 -44v-127h-116q-27 0 -44.5 -18.5 t-17.5 -42.5v-179z" />
<glyph unicode="?" horiz-adv-x="1624" d="M195 1167v168q0 25 18 43.5t45 18.5h127v127q0 25 17.5 43t43.5 18h744q25 0 43 -18.5t18 -42.5v-117h115q27 0 45.5 -18.5t18.5 -42.5v-367q0 -27 -18.5 -44t-45.5 -17h-127v-127q0 -27 -17.5 -45.5t-43.5 -18.5h-146v-287q0 -27 -18.5 -44t-42.5 -17h-176 q-27 0 -44.5 17.5t-17.5 43.5v326q0 25 17.5 43t44.5 18h114v127q0 27 18.5 44.5t45.5 17.5h153v268h-643v-117q0 -25 -18.5 -43t-42.5 -18h-164q-27 0 -45 18.5t-18 42.5zM748 39q0 -16 10 -26.5t26 -10.5h213q16 0 26.5 10.5t10.5 26.5v213q0 16 -10 26.5t-27 10.5h-213 q-16 0 -26 -10.5t-10 -26.5v-213z" />
<glyph unicode="@" d="M195 424q0 -25 18 -43.5t45 -18.5h127v-126q0 -25 17.5 -43.5t43.5 -18.5h922q27 0 45.5 18.5t18.5 43.5v165q0 27 -18.5 45.5t-45.5 18.5h-870v833h632v-65h-317q-25 0 -43 -17.5t-18 -44.5v-129h-117q-25 0 -43.5 -18t-18.5 -43v-178q0 -25 18.5 -43.5t43.5 -18.5h127 v-127q0 -27 18.5 -44t42.5 -17h371q25 0 43 17.5t18 43.5v115h113q27 0 45.5 18.5t18.5 45.5v555q0 25 -18.5 43t-45.5 18h-127v129q0 27 -17.5 44t-43.5 17h-746q-25 0 -43 -17t-18 -44v-115h-115q-27 0 -45 -18.5t-18 -44.5v-936zM874 854v53h244v-53h-244z" />
<glyph unicode="A" d="M195 61q0 -25 18 -43t45 -18h176q27 0 45.5 18.5t18.5 42.5v484h632v-484q0 -25 18.5 -43t45.5 -18h174q27 0 45.5 18.5t18.5 42.5v1303q0 27 -18.5 44t-45.5 17h-127v127q0 27 -17.5 45.5t-43.5 18.5h-746q-25 0 -43 -18.5t-18 -45.5v-114h-115q-27 0 -45 -18.5 t-18 -43.5v-1315zM508 881v434h622v-434h-622z" />
<glyph unicode="B" d="M195 61q0 -25 18 -43t45 -18h936q25 0 43 18.5t18 42.5v117h113q27 0 45.5 18.5t18.5 43.5v555q0 27 -18.5 45t-45.5 18h-113v78h113q27 0 45.5 18.5t18.5 42.5v367q0 27 -18.5 44t-45.5 17h-127v127q0 27 -17.5 45.5t-43.5 18.5h-922q-27 0 -45 -18.5t-18 -45.5v-176 q0 -27 18 -44t45 -17h104v-1014h-104q-27 0 -45 -18.5t-18 -42.5v-179zM696 313v432h434v-432h-434zM696 1071v244h434v-244h-434z" />
<glyph unicode="C" d="M195 250q0 -25 18 -43.5t45 -18.5h127v-127q0 -25 17.5 -43t43.5 -18h748q25 0 43 18.5t18 42.5v117h113q27 0 45.5 18.5t18.5 43.5v178q0 25 -18.5 43t-45.5 18h-174q-27 0 -45.5 -18.5t-18.5 -42.5v-117h-632v1014h645v-117q0 -27 18.5 -44t42.5 -17h164q27 0 45.5 17 t18.5 44v166q0 27 -18.5 44t-45.5 17h-127v127q0 27 -17.5 45.5t-43.5 18.5h-746q-25 0 -43 -18.5t-18 -45.5v-114h-115q-27 0 -45 -18.5t-18 -43.5v-1126z" />
<glyph unicode="D" d="M195 61q0 -25 18 -43t45 -18h936q25 0 43 18.5t18 42.5v117h113q27 0 45.5 18.5t18.5 43.5v1124q0 27 -18.5 44t-45.5 17h-127v127q0 27 -17.5 45.5t-43.5 18.5h-922q-27 0 -45 -18.5t-18 -45.5v-176q0 -27 18 -44t45 -17h104v-1014h-104q-27 0 -45 -18.5t-18 -42.5v-179 zM696 313v1002h434v-1002h-434z" />
<glyph unicode="E" d="M195 61q0 -25 18 -43t45 -18h1110q27 0 45.5 18.5t18.5 42.5v179q0 25 -18.5 43t-45.5 18h-860v444h688q25 0 43 17.5t18 44.5v190q0 27 -18 44.5t-43 17.5h-688v256h860q27 0 45.5 17.5t18.5 43.5v176q0 27 -18.5 45.5t-45.5 18.5h-1110q-27 0 -45 -18.5t-18 -45.5 v-1491z" />
<glyph unicode="F" d="M195 61q0 -25 18 -43t45 -18h176q27 0 45.5 18.5t18.5 42.5v684h698q25 0 43 17.5t18 44.5v190q0 27 -18 44.5t-43 17.5h-688v256h860q27 0 45.5 17.5t18.5 43.5v176q0 27 -18.5 45.5t-45.5 18.5h-1110q-27 0 -45 -18.5t-18 -45.5v-1491z" />
<glyph unicode="G" d="M195 250q0 -25 18 -43.5t45 -18.5h127v-127q0 -25 17.5 -43t43.5 -18h748q25 0 43 18.5t18 42.5v117h113q27 0 45.5 18.5t18.5 43.5v555q0 27 -18.5 45t-45.5 18h-545q-25 0 -43 -18.5t-18 -44.5v-177q0 -27 18.5 -45t42.5 -18h295v-254h-620v1014h645v-219 q0 -27 18.5 -44.5t42.5 -17.5h164q27 0 45.5 17.5t18.5 44.5v268q0 27 -18.5 44t-45.5 17h-127v127q0 27 -17.5 45.5t-43.5 18.5h-746q-25 0 -43 -18.5t-18 -45.5v-114h-115q-27 0 -45 -18.5t-18 -43.5v-1126z" />
<glyph unicode="H" d="M195 61q0 -25 18 -43t45 -18h176q27 0 45.5 18.5t18.5 42.5v672h632v-672q0 -25 18.5 -43t45.5 -18h174q27 0 45.5 18.5t18.5 42.5v1491q0 27 -18.5 45.5t-45.5 18.5h-174q-27 0 -45.5 -18.5t-18.5 -45.5v-481h-632v481q0 27 -18.5 45.5t-45.5 18.5h-176q-27 0 -45 -18.5 t-18 -45.5v-1491z" />
<glyph unicode="I" horiz-adv-x="1419" d="M186 61q0 -25 18.5 -43t43.5 -18h923q25 0 43.5 18.5t18.5 42.5v179q0 25 -18.5 43t-43.5 18h-292v1014h292q25 0 43.5 17.5t18.5 43.5v176q0 27 -18.5 45.5t-43.5 18.5h-923q-25 0 -43.5 -18.5t-18.5 -45.5v-176q0 -27 18.5 -44t43.5 -17h295v-1014h-295 q-25 0 -43.5 -18.5t-18.5 -42.5v-179z" />
<glyph unicode="J" d="M195 250q0 -25 18 -43.5t45 -18.5h127v-127q0 -25 17.5 -43t43.5 -18h748q25 0 43 18.5t18 42.5v117h113q27 0 45.5 18.5t18.5 43.5v1312q0 27 -18.5 45.5t-45.5 18.5h-174q-27 0 -45.5 -18.5t-18.5 -45.5v-1251h-645v305q0 27 -18 44.5t-43 17.5h-166q-27 0 -45 -17.5 t-18 -44.5v-356z" />
<glyph unicode="K" d="M195 61q0 -25 18 -43t45 -18h176q27 0 45.5 18.5t18.5 42.5v684h75v-116q0 -25 18.5 -43.5t43.5 -18.5h127v-127q0 -27 18.5 -44t42.5 -17h131v-129q0 -25 17.5 -43.5t44.5 -18.5h127v-127q0 -25 18.5 -43t42.5 -18h164q27 0 45.5 18.5t18.5 42.5v166q0 27 -18.5 45.5 t-45.5 18.5h-127v127q0 25 -17.5 43t-43.5 18h-127v127q0 27 -18.5 44.5t-43.5 17.5h-127v127q0 27 -18.5 45t-42.5 18h-117v78h127q25 0 43 18.5t18 42.5v127h127q27 0 44.5 18.5t17.5 43.5v129h117q27 0 44 17.5t17 43.5v176q0 27 -17.5 45.5t-43.5 18.5h-179 q-25 0 -43 -18.5t-18 -45.5v-114h-127q-25 0 -43 -18.5t-18 -43.5v-127h-127q-27 0 -44.5 -18.5t-17.5 -44.5v-115h-65v481q0 27 -18.5 45.5t-45.5 18.5h-176q-27 0 -45 -18.5t-18 -45.5v-1491z" />
<glyph unicode="L" horiz-adv-x="1419" d="M186 61q0 -25 18.5 -43t43.5 -18h923q25 0 43.5 18.5t18.5 42.5v179q0 25 -18.5 43t-43.5 18h-684v1251q0 27 -18 45.5t-43 18.5h-178q-25 0 -43.5 -18.5t-18.5 -45.5v-1491z" />
<glyph unicode="M" d="M195 61q0 -25 18 -43t45 -18h176q27 0 45.5 18.5t18.5 42.5v1063h75v-114q0 -27 18.5 -45.5t43.5 -18.5h366q27 0 44.5 18.5t17.5 45.5v102h67v-1051q0 -25 18.5 -43t45.5 -18h174q27 0 45.5 18.5t18.5 42.5v1491q0 27 -18.5 45.5t-45.5 18.5h-174q-27 0 -45.5 -18.5 t-18.5 -45.5v-114h-129q-25 0 -43 -18.5t-18 -43.5v-127h-266v127q0 25 -17.5 43.5t-44.5 18.5h-114v114q0 27 -18.5 45.5t-45.5 18.5h-176q-27 0 -45 -18.5t-18 -45.5v-1491z" />
<glyph unicode="N" d="M195 61q0 -25 18 -43t45 -18h176q27 0 45.5 18.5t18.5 42.5v1063h75v-114q0 -27 18.5 -45.5t43.5 -18.5h127v-127q0 -25 18.5 -43t42.5 -18h131v-140q0 -27 17.5 -45t44.5 -18h114v-494q0 -25 18.5 -43t45.5 -18h174q27 0 45.5 18.5t18.5 42.5v1491q0 27 -18.5 45.5 t-45.5 18.5h-174q-27 0 -45.5 -18.5t-18.5 -45.5v-684h-77v117q0 25 -18.5 43.5t-43.5 18.5h-127v127q0 25 -18.5 43t-42.5 18h-129v141q0 25 -17.5 43.5t-44.5 18.5h-114v114q0 27 -18.5 45.5t-45.5 18.5h-176q-27 0 -45 -18.5t-18 -45.5v-1491z" />
<glyph unicode="O" d="M195 61q0 -25 18 -43t45 -18h1110q27 0 45.5 18.5t18.5 42.5v1491q0 27 -18.5 45.5t-45.5 18.5h-1110q-27 0 -45 -18.5t-18 -45.5v-1491zM508 313v990h610v-990h-610z" />
<glyph unicode="P" d="M195 61q0 -25 18 -43t45 -18h176q27 0 45.5 18.5t18.5 42.5v494h696q25 0 43 18.5t18 44.5v127h113q27 0 45.5 17.5t18.5 44.5v557q0 27 -18.5 44t-45.5 17h-127v127q0 27 -17.5 45.5t-43.5 18.5h-922q-27 0 -45 -18.5t-18 -45.5v-1491zM508 881v434h622v-434h-622z" />
<glyph unicode="Q" d="M195 61q0 -25 18 -43t45 -18h317v-162q0 -25 18.5 -43t43.5 -18h924q25 0 43 18.5t18 42.5v166q0 27 -18.5 45.5t-42.5 18.5h-129v1484q0 27 -18.5 45.5t-45.5 18.5h-1110q-27 0 -45 -18.5t-18 -45.5v-1491zM508 313v990h610v-1235h-280v247z" />
<glyph unicode="R" d="M195 61q0 -25 18 -43t45 -18h176q27 0 45.5 18.5t18.5 42.5v484h254v-105q0 -27 18 -44t43 -17h141v-129q0 -25 17.5 -43.5t44.5 -18.5h127v-127q0 -25 18.5 -43t42.5 -18h164q27 0 45.5 18.5t18.5 42.5v166q0 27 -18.5 45.5t-45.5 18.5h-127v127q0 25 -17.5 43t-43.5 18 h-117v76h131q25 0 43 18.5t18 44.5v127h113q27 0 45.5 17.5t18.5 44.5v557q0 27 -18.5 44t-45.5 17h-127v127q0 27 -17.5 45.5t-43.5 18.5h-922q-27 0 -45 -18.5t-18 -45.5v-1491zM508 881v434h622v-434h-622z" />
<glyph unicode="S" d="M195 250q0 -25 18 -43.5t45 -18.5h127v-127q0 -25 17.5 -43t43.5 -18h748q25 0 43 18.5t18 42.5v117h113q27 0 45.5 18.5t18.5 43.5v555q0 27 -18.5 45t-45.5 18h-127v127q0 25 -17.5 43.5t-43.5 18.5h-682v268h645v-117q0 -27 18.5 -44t42.5 -17h164q27 0 45.5 17 t18.5 44v166q0 27 -18.5 44t-45.5 17h-127v127q0 27 -17.5 45.5t-43.5 18.5h-746q-25 0 -43 -18.5t-18 -45.5v-114h-115q-27 0 -45 -18.5t-18 -43.5v-366q0 -27 18 -45.5t45 -18.5h127v-127q0 -25 17.5 -43t43.5 -18h684v-457h-645v117q0 25 -18 43t-43 18h-166 q-27 0 -45 -18.5t-18 -42.5v-168z" />
<glyph unicode="T" horiz-adv-x="1419" d="M186 1376q0 -27 18.5 -44t43.5 -17h305v-1254q0 -25 18.5 -43t42.5 -18h191q25 0 43 18.5t18 42.5v1254h305q25 0 43.5 17.5t18.5 43.5v176q0 27 -18.5 45.5t-43.5 18.5h-923q-25 0 -43.5 -18.5t-18.5 -45.5v-176z" />
<glyph unicode="U" d="M195 250q0 -25 18 -43.5t45 -18.5h127v-127q0 -25 17.5 -43t43.5 -18h748q25 0 43 18.5t18 42.5v117h113q27 0 45.5 18.5t18.5 43.5v1312q0 27 -18.5 45.5t-45.5 18.5h-174q-27 0 -45.5 -18.5t-18.5 -45.5v-1251h-645v1251q0 27 -18 45.5t-43 18.5h-166q-27 0 -45 -18.5 t-18 -45.5v-1302z" />
<glyph unicode="V" horiz-adv-x="1419" d="M186 819q0 -25 18.5 -43t43.5 -18h127v-318q0 -27 18.5 -44t42.5 -17h129v-318q0 -25 17.5 -43t44.5 -18h178q25 0 43 18.5t18 42.5v306h127q25 0 43.5 18t18.5 43v317h116q25 0 43.5 17.5t18.5 44.5v745q0 27 -18.5 45.5t-43.5 18.5h-178q-27 0 -44 -18.5t-17 -45.5 v-684h-127q-27 0 -45.5 -18.5t-18.5 -42.5v-318h-75v306q0 27 -18.5 45t-43.5 18h-127v694q0 27 -18.5 45.5t-42.5 18.5h-168q-25 0 -43.5 -18.5t-18.5 -45.5v-733z" />
<glyph unicode="W" d="M195 61q0 -25 18 -43t45 -18h176q27 0 45.5 18.5t18.5 42.5v117h127q25 0 43 18.5t18 43.5v127h268v-127q0 -25 17.5 -43.5t44.5 -18.5h114v-117q0 -25 18.5 -43t45.5 -18h174q27 0 45.5 18.5t18.5 42.5v1491q0 27 -18.5 45.5t-45.5 18.5h-174q-27 0 -45.5 -18.5 t-18.5 -45.5v-1063h-77v117q0 27 -18.5 44.5t-43.5 17.5h-366q-27 0 -44.5 -17.5t-17.5 -44.5v-104h-65v1050q0 27 -18.5 45.5t-45.5 18.5h-176q-27 0 -45 -18.5t-18 -45.5v-1491z" />
<glyph unicode="X" d="M195 61q0 -25 18 -43t45 -18h176q27 0 45.5 18.5t18.5 42.5v306h127q25 0 43 18t18 43v127h268v-115q0 -27 17.5 -44t44.5 -17h127v-318q0 -25 18.5 -43t42.5 -18h164q27 0 45.5 18.5t18.5 42.5v357q0 25 -18.5 43t-45.5 18h-127v127q0 27 -17.5 44.5t-43.5 17.5h-117 v268h131q25 0 43 18.5t18 42.5v127h113q27 0 45.5 18.5t18.5 43.5v366q0 27 -18.5 45.5t-45.5 18.5h-174q-27 0 -45.5 -18.5t-18.5 -45.5v-303h-129q-25 0 -43 -18.5t-18 -44.5v-127h-266v115q0 25 -17.5 43t-44.5 18h-127v317q0 27 -18 45.5t-43 18.5h-166q-27 0 -45 -18.5 t-18 -45.5v-354q0 -27 18 -44t45 -17h127v-127q0 -27 17.5 -45.5t43.5 -18.5h117v-266h-129q-25 0 -43 -18.5t-18 -43.5v-129h-115q-27 0 -45 -17t-18 -44v-367z" />
<glyph unicode="Y" horiz-adv-x="1419" d="M186 784q0 -27 18.5 -45t43.5 -18h127v-127q0 -25 18.5 -43.5t42.5 -18.5h129v-471q0 -25 17.5 -43t44.5 -18h178q25 0 43 18.5t18 42.5v459h127q25 0 43.5 17.5t18.5 44.5v129h116q25 0 43.5 18.5t18.5 42.5v780q0 27 -18.5 45.5t-43.5 18.5h-178q-27 0 -44 -18.5 t-17 -45.5v-718h-127q-27 0 -45.5 -17.5t-18.5 -44.5v-129h-75v117q0 25 -18.5 43t-43.5 18h-127v731q0 27 -18.5 45.5t-42.5 18.5h-168q-25 0 -43.5 -18.5t-18.5 -45.5v-768z" />
<glyph unicode="Z" d="M195 61q0 -25 18 -43t45 -18h1110q27 0 45.5 18.5t18.5 42.5v179q0 25 -18.5 43t-45.5 18h-860v66h117q25 0 43 18t18 43v127h127q25 0 43 18.5t18 44.5v127h127q27 0 44.5 17.5t17.5 44.5v129h131q25 0 43 18.5t18 42.5v127h113q27 0 45.5 18.5t18.5 43.5v366 q0 27 -18.5 45.5t-45.5 18.5h-1110q-27 0 -45 -18.5t-18 -45.5v-176q0 -27 18 -44t45 -17h860v-66h-117q-25 0 -43 -18.5t-18 -44.5v-127h-127q-25 0 -43 -17.5t-18 -44.5v-129h-127q-27 0 -44.5 -18.5t-17.5 -42.5v-127h-129q-25 0 -43 -18.5t-18 -43.5v-129h-115 q-27 0 -45 -17t-18 -44v-367z" />
<glyph unicode="\" d="M195 1186v176q0 27 18 44t45 17h174q27 0 45.5 -17t18.5 -44v-113h129q25 0 43 -18.5t18 -44.5v-129h127q25 0 43 -17.5t18 -44.5v-127h127q27 0 44.5 -18.5t17.5 -42.5v-127h129q25 0 43 -18.5t18 -43.5v-129h115q27 0 45.5 -17t18.5 -44v-178q0 -25 -18.5 -43.5 t-45.5 -18.5h-176q-27 0 -45.5 18.5t-18.5 43.5v117h-127q-25 0 -43 18t-18 43v127h-127q-25 0 -43 18.5t-18 44.5v127h-127q-27 0 -44.5 17.5t-17.5 44.5v127h-131q-25 0 -43 18.5t-18 42.5v129h-113q-27 0 -45 18.5t-18 43.5z" />
<glyph unicode="^" horiz-adv-x="1835" d="M205 819q0 -25 18.5 -43t42.5 -18h178q25 0 43.5 18.5t18.5 42.5v117h127q27 0 44 18.5t17 42.5v127h129q27 0 44.5 18.5t17.5 43.5v129h78v-115q0 -27 18 -44t43 -17h127v-129q0 -27 18.5 -45.5t42.5 -18.5h129v-127q0 -25 18.5 -43t45.5 -18h164q25 0 43 18.5t18 42.5 v168q0 25 -18.5 43.5t-42.5 18.5h-127v127q0 25 -18.5 43t-43.5 18h-127v127q0 27 -18 44t-45 17h-129v127q0 27 -17.5 45.5t-44.5 18.5h-176q-25 0 -43 -18.5t-18 -45.5v-112h-129q-25 0 -43.5 -18.5t-18.5 -43.5v-129h-127q-27 0 -44 -18.5t-17 -44.5v-127h-117 q-25 0 -43 -17.5t-18 -44.5v-178z" />
<glyph unicode="_" horiz-adv-x="1140" d="M-47 -258v-166q0 -25 18.5 -43t44.5 -18h1110q27 0 45.5 18t18.5 43v166q0 27 -18.5 45t-45.5 18h-1110q-27 0 -45 -18t-18 -45z" />
<glyph unicode="a" d="M195 61q0 -25 18 -43t45 -18h176q27 0 45.5 18.5t18.5 42.5v484h632v-484q0 -25 18.5 -43t45.5 -18h174q27 0 45.5 18.5t18.5 42.5v1303q0 27 -18.5 44t-45.5 17h-127v127q0 27 -17.5 45.5t-43.5 18.5h-746q-25 0 -43 -18.5t-18 -45.5v-114h-115q-27 0 -45 -18.5 t-18 -43.5v-1315zM508 881v434h622v-434h-622z" />
<glyph unicode="b" d="M195 61q0 -25 18 -43t45 -18h936q25 0 43 18.5t18 42.5v117h113q27 0 45.5 18.5t18.5 43.5v555q0 27 -18.5 45t-45.5 18h-113v78h113q27 0 45.5 18.5t18.5 42.5v367q0 27 -18.5 44t-45.5 17h-127v127q0 27 -17.5 45.5t-43.5 18.5h-922q-27 0 -45 -18.5t-18 -45.5v-176 q0 -27 18 -44t45 -17h104v-1014h-104q-27 0 -45 -18.5t-18 -42.5v-179zM696 313v432h434v-432h-434zM696 1071v244h434v-244h-434z" />
<glyph unicode="c" d="M195 250q0 -25 18 -43.5t45 -18.5h127v-127q0 -25 17.5 -43t43.5 -18h748q25 0 43 18.5t18 42.5v117h113q27 0 45.5 18.5t18.5 43.5v178q0 25 -18.5 43t-45.5 18h-174q-27 0 -45.5 -18.5t-18.5 -42.5v-117h-632v1014h645v-117q0 -27 18.5 -44t42.5 -17h164q27 0 45.5 17 t18.5 44v166q0 27 -18.5 44t-45.5 17h-127v127q0 27 -17.5 45.5t-43.5 18.5h-746q-25 0 -43 -18.5t-18 -45.5v-114h-115q-27 0 -45 -18.5t-18 -43.5v-1126z" />
<glyph unicode="d" d="M195 61q0 -25 18 -43t45 -18h936q25 0 43 18.5t18 42.5v117h113q27 0 45.5 18.5t18.5 43.5v1124q0 27 -18.5 44t-45.5 17h-127v127q0 27 -17.5 45.5t-43.5 18.5h-922q-27 0 -45 -18.5t-18 -45.5v-176q0 -27 18 -44t45 -17h104v-1014h-104q-27 0 -45 -18.5t-18 -42.5v-179 zM696 313v1002h434v-1002h-434z" />
<glyph unicode="e" d="M195 61q0 -25 18 -43t45 -18h1110q27 0 45.5 18.5t18.5 42.5v179q0 25 -18.5 43t-45.5 18h-860v383h483q25 0 43.5 17.5t18.5 43.5v191q0 27 -18.5 44t-43.5 17h-483v318h860q27 0 45.5 17.5t18.5 43.5v176q0 27 -18.5 45.5t-45.5 18.5h-1110q-27 0 -45 -18.5t-18 -45.5 v-1491z" />
<glyph unicode="f" d="M195 61q0 -25 18 -43t45 -18h176q27 0 45.5 18.5t18.5 42.5v623h493q25 0 43.5 17.5t18.5 43.5v191q0 27 -18.5 44t-43.5 17h-483v318h860q27 0 45.5 17.5t18.5 43.5v176q0 27 -18.5 45.5t-45.5 18.5h-1110q-27 0 -45 -18.5t-18 -45.5v-1491z" />
<glyph unicode="g" d="M195 250q0 -25 18 -43.5t45 -18.5h127v-127q0 -25 17.5 -43t43.5 -18h748q25 0 43 18.5t18 42.5v117h113q27 0 45.5 18.5t18.5 43.5v555q0 27 -18.5 45t-45.5 18h-545q-25 0 -43 -18.5t-18 -44.5v-177q0 -27 18.5 -45t42.5 -18h295v-254h-620v1014h645v-117 q0 -27 18.5 -44t42.5 -17h164q27 0 45.5 17t18.5 44v166q0 27 -18.5 44t-45.5 17h-127v127q0 27 -17.5 45.5t-43.5 18.5h-746q-25 0 -43 -18.5t-18 -45.5v-114h-115q-27 0 -45 -18.5t-18 -43.5v-1126z" />
<glyph unicode="h" d="M195 61q0 -25 18 -43t45 -18h176q27 0 45.5 18.5t18.5 42.5v672h632v-672q0 -25 18.5 -43t45.5 -18h174q27 0 45.5 18.5t18.5 42.5v1491q0 27 -18.5 45.5t-45.5 18.5h-174q-27 0 -45.5 -18.5t-18.5 -45.5v-481h-632v481q0 27 -18.5 45.5t-45.5 18.5h-176q-27 0 -45 -18.5 t-18 -45.5v-1491z" />
<glyph unicode="i" horiz-adv-x="1419" d="M186 61q0 -25 18.5 -43t43.5 -18h923q25 0 43.5 18.5t18.5 42.5v179q0 25 -18.5 43t-43.5 18h-292v1014h292q25 0 43.5 17.5t18.5 43.5v176q0 27 -18.5 45.5t-43.5 18.5h-923q-25 0 -43.5 -18.5t-18.5 -45.5v-176q0 -27 18.5 -44t43.5 -17h295v-1014h-295 q-25 0 -43.5 -18.5t-18.5 -42.5v-179z" />
<glyph unicode="j" d="M195 250q0 -25 18 -43.5t45 -18.5h127v-127q0 -25 17.5 -43t43.5 -18h748q25 0 43 18.5t18 42.5v117h113q27 0 45.5 18.5t18.5 43.5v1312q0 27 -18.5 45.5t-45.5 18.5h-174q-27 0 -45.5 -18.5t-18.5 -45.5v-1251h-645v305q0 27 -18 44.5t-43 17.5h-166q-27 0 -45 -17.5 t-18 -44.5v-356z" />
<glyph unicode="k" d="M195 61q0 -25 18 -43t45 -18h176q27 0 45.5 18.5t18.5 42.5v684h75v-116q0 -25 18.5 -43.5t43.5 -18.5h127v-127q0 -27 18.5 -44t42.5 -17h131v-129q0 -25 17.5 -43.5t44.5 -18.5h127v-127q0 -25 18.5 -43t42.5 -18h164q27 0 45.5 18.5t18.5 42.5v166q0 27 -18.5 45.5 t-45.5 18.5h-127v127q0 25 -17.5 43t-43.5 18h-127v127q0 27 -18.5 44.5t-43.5 17.5h-127v127q0 27 -18.5 45t-42.5 18h-117v78h127q25 0 43 18.5t18 42.5v127h127q27 0 44.5 18.5t17.5 43.5v129h117q27 0 44 17.5t17 43.5v176q0 27 -17.5 45.5t-43.5 18.5h-179 q-25 0 -43 -18.5t-18 -45.5v-114h-127q-25 0 -43 -18.5t-18 -43.5v-127h-127q-27 0 -44.5 -18.5t-17.5 -44.5v-115h-65v481q0 27 -18.5 45.5t-45.5 18.5h-176q-27 0 -45 -18.5t-18 -45.5v-1491z" />
<glyph unicode="l" horiz-adv-x="1419" d="M186 61q0 -25 18.5 -43t43.5 -18h923q25 0 43.5 18.5t18.5 42.5v179q0 25 -18.5 43t-43.5 18h-684v1251q0 27 -18 45.5t-43 18.5h-178q-25 0 -43.5 -18.5t-18.5 -45.5v-1491z" />
<glyph unicode="m" d="M195 61q0 -25 18 -43t45 -18h176q27 0 45.5 18.5t18.5 42.5v1063h75v-114q0 -27 18.5 -45.5t43.5 -18.5h366q27 0 44.5 18.5t17.5 45.5v102h67v-1051q0 -25 18.5 -43t45.5 -18h174q27 0 45.5 18.5t18.5 42.5v1491q0 27 -18.5 45.5t-45.5 18.5h-174q-27 0 -45.5 -18.5 t-18.5 -45.5v-114h-129q-25 0 -43 -18.5t-18 -43.5v-127h-266v127q0 25 -17.5 43.5t-44.5 18.5h-114v114q0 27 -18.5 45.5t-45.5 18.5h-176q-27 0 -45 -18.5t-18 -45.5v-1491z" />
<glyph unicode="n" d="M195 61q0 -25 18 -43t45 -18h176q27 0 45.5 18.5t18.5 42.5v1063h75v-114q0 -27 18.5 -45.5t43.5 -18.5h127v-127q0 -25 18.5 -43t42.5 -18h131v-140q0 -27 17.5 -45t44.5 -18h114v-494q0 -25 18.5 -43t45.5 -18h174q27 0 45.5 18.5t18.5 42.5v1491q0 27 -18.5 45.5 t-45.5 18.5h-174q-27 0 -45.5 -18.5t-18.5 -45.5v-684h-77v117q0 25 -18.5 43.5t-43.5 18.5h-127v127q0 25 -18.5 43t-42.5 18h-129v141q0 25 -17.5 43.5t-44.5 18.5h-114v114q0 27 -18.5 45.5t-45.5 18.5h-176q-27 0 -45 -18.5t-18 -45.5v-1491z" />
<glyph unicode="o" d="M195 61q0 -25 18 -43t45 -18h1110q27 0 45.5 18.5t18.5 42.5v1491q0 27 -18.5 45.5t-45.5 18.5h-1110q-27 0 -45 -18.5t-18 -45.5v-1491zM508 313v990h610v-990h-610z" />
<glyph unicode="p" d="M195 61q0 -25 18 -43t45 -18h176q27 0 45.5 18.5t18.5 42.5v494h696q25 0 43 18.5t18 44.5v127h113q27 0 45.5 17.5t18.5 44.5v557q0 27 -18.5 44t-45.5 17h-127v127q0 27 -17.5 45.5t-43.5 18.5h-922q-27 0 -45 -18.5t-18 -45.5v-1491zM508 881v434h622v-434h-622z" />
<glyph unicode="q" d="M195 61q0 -25 18 -43t45 -18h317v-162q0 -25 18.5 -43t43.5 -18h924q25 0 43 18.5t18 42.5v166q0 27 -18.5 45.5t-42.5 18.5h-129v1484q0 27 -18.5 45.5t-45.5 18.5h-1110q-27 0 -45 -18.5t-18 -45.5v-1491zM508 313v990h610v-1235h-280v247z" />
<glyph unicode="r" d="M195 61q0 -25 18 -43t45 -18h176q27 0 45.5 18.5t18.5 42.5v484h254v-105q0 -27 18 -44t43 -17h141v-129q0 -25 17.5 -43.5t44.5 -18.5h127v-127q0 -25 18.5 -43t42.5 -18h164q27 0 45.5 18.5t18.5 42.5v166q0 27 -18.5 45.5t-45.5 18.5h-127v127q0 25 -17.5 43t-43.5 18 h-117v76h131q25 0 43 18.5t18 44.5v127h113q27 0 45.5 17.5t18.5 44.5v557q0 27 -18.5 44t-45.5 17h-127v127q0 27 -17.5 45.5t-43.5 18.5h-922q-27 0 -45 -18.5t-18 -45.5v-1491zM508 881v434h622v-434h-622z" />
<glyph unicode="s" d="M195 250q0 -25 18 -43.5t45 -18.5h127v-127q0 -25 17.5 -43t43.5 -18h748q25 0 43 18.5t18 42.5v117h113q27 0 45.5 18.5t18.5 43.5v555q0 27 -18.5 45t-45.5 18h-127v127q0 25 -17.5 43.5t-43.5 18.5h-682v268h645v-117q0 -27 18.5 -44t42.5 -17h164q27 0 45.5 17 t18.5 44v166q0 27 -18.5 44t-45.5 17h-127v127q0 27 -17.5 45.5t-43.5 18.5h-746q-25 0 -43 -18.5t-18 -45.5v-114h-115q-27 0 -45 -18.5t-18 -43.5v-366q0 -27 18 -45.5t45 -18.5h127v-127q0 -25 17.5 -43t43.5 -18h684v-457h-645v117q0 25 -18 43t-43 18h-166 q-27 0 -45 -18.5t-18 -42.5v-168z" />
<glyph unicode="t" horiz-adv-x="1419" d="M186 1376q0 -27 18.5 -44t43.5 -17h305v-1254q0 -25 18.5 -43t42.5 -18h191q25 0 43 18.5t18 42.5v1254h305q25 0 43.5 17.5t18.5 43.5v176q0 27 -18.5 45.5t-43.5 18.5h-923q-25 0 -43.5 -18.5t-18.5 -45.5v-176z" />
<glyph unicode="u" d="M195 250q0 -25 18 -43.5t45 -18.5h127v-127q0 -25 17.5 -43t43.5 -18h748q25 0 43 18.5t18 42.5v117h113q27 0 45.5 18.5t18.5 43.5v1312q0 27 -18.5 45.5t-45.5 18.5h-174q-27 0 -45.5 -18.5t-18.5 -45.5v-1251h-645v1251q0 27 -18 45.5t-43 18.5h-166q-27 0 -45 -18.5 t-18 -45.5v-1302z" />
<glyph unicode="v" horiz-adv-x="1419" d="M186 819q0 -25 18.5 -43t43.5 -18h127v-318q0 -27 18.5 -44t42.5 -17h129v-318q0 -25 17.5 -43t44.5 -18h178q25 0 43 18.5t18 42.5v306h127q25 0 43.5 18t18.5 43v317h116q25 0 43.5 17.5t18.5 44.5v745q0 27 -18.5 45.5t-43.5 18.5h-178q-27 0 -44 -18.5t-17 -45.5 v-684h-127q-27 0 -45.5 -18.5t-18.5 -42.5v-318h-75v306q0 27 -18.5 45t-43.5 18h-127v694q0 27 -18.5 45.5t-42.5 18.5h-168q-25 0 -43.5 -18.5t-18.5 -45.5v-733z" />
<glyph unicode="w" d="M195 61q0 -25 18 -43t45 -18h176q27 0 45.5 18.5t18.5 42.5v117h127q25 0 43 18.5t18 43.5v127h268v-127q0 -25 17.5 -43.5t44.5 -18.5h114v-117q0 -25 18.5 -43t45.5 -18h174q27 0 45.5 18.5t18.5 42.5v1491q0 27 -18.5 45.5t-45.5 18.5h-174q-27 0 -45.5 -18.5 t-18.5 -45.5v-1063h-77v117q0 27 -18.5 44.5t-43.5 17.5h-366q-27 0 -44.5 -17.5t-17.5 -44.5v-104h-65v1050q0 27 -18.5 45.5t-45.5 18.5h-176q-27 0 -45 -18.5t-18 -45.5v-1491z" />
<glyph unicode="x" d="M195 61q0 -25 18 -43t45 -18h176q27 0 45.5 18.5t18.5 42.5v306h127q25 0 43 18t18 43v127h268v-115q0 -27 17.5 -44t44.5 -17h127v-318q0 -25 18.5 -43t42.5 -18h164q27 0 45.5 18.5t18.5 42.5v357q0 25 -18.5 43t-45.5 18h-127v127q0 27 -17.5 44.5t-43.5 17.5h-117 v268h131q25 0 43 18.5t18 42.5v127h113q27 0 45.5 18.5t18.5 43.5v366q0 27 -18.5 45.5t-45.5 18.5h-174q-27 0 -45.5 -18.5t-18.5 -45.5v-303h-129q-25 0 -43 -18.5t-18 -44.5v-127h-266v115q0 25 -17.5 43t-44.5 18h-127v317q0 27 -18 45.5t-43 18.5h-166q-27 0 -45 -18.5 t-18 -45.5v-354q0 -27 18 -44t45 -17h127v-127q0 -27 17.5 -45.5t43.5 -18.5h117v-266h-129q-25 0 -43 -18.5t-18 -43.5v-129h-115q-27 0 -45 -17t-18 -44v-367z" />
<glyph unicode="y" horiz-adv-x="1419" d="M186 1010q0 -27 18.5 -45.5t43.5 -18.5h127v-127q0 -25 18.5 -43t42.5 -18h129v-697q0 -25 17.5 -43t44.5 -18h178q25 0 43 18.5t18 42.5v684h127q25 0 43.5 17.5t18.5 44.5v129h116q25 0 43.5 18.5t18.5 42.5v555q0 27 -18.5 45.5t-43.5 18.5h-178q-27 0 -44 -18.5 t-17 -45.5v-493h-127q-27 0 -45.5 -17.5t-18.5 -44.5v-129h-75v117q0 25 -18.5 43.5t-43.5 18.5h-127v505q0 27 -18.5 45.5t-42.5 18.5h-168q-25 0 -43.5 -18.5t-18.5 -45.5v-542z" />
<glyph unicode="z" d="M195 61q0 -25 18 -43t45 -18h1110q27 0 45.5 18.5t18.5 42.5v179q0 25 -18.5 43t-45.5 18h-860v66h117q25 0 43 18t18 43v127h127q25 0 43 18.5t18 44.5v127h127q27 0 44.5 17.5t17.5 44.5v129h131q25 0 43 18.5t18 42.5v127h113q27 0 45.5 18.5t18.5 43.5v366 q0 27 -18.5 45.5t-45.5 18.5h-1110q-27 0 -45 -18.5t-18 -45.5v-176q0 -27 18 -44t45 -17h860v-66h-117q-25 0 -43 -18.5t-18 -44.5v-127h-127q-25 0 -43 -17.5t-18 -44.5v-129h-127q-27 0 -44.5 -18.5t-17.5 -42.5v-127h-129q-25 0 -43 -18.5t-18 -43.5v-129h-115 q-27 0 -45 -17t-18 -44v-367z" />
<glyph unicode="&#xa3;" horiz-adv-x="1419" d="M49 983q0 -25 17.5 -43t44.5 -18h163q27 0 44.5 18t17.5 43v166q0 25 -17.5 43t-44.5 18h-163q-27 0 -44.5 -18t-17.5 -43v-166zM164 1051v30q0 12 12 13h33q12 0 12 -13v-30q0 -12 -12 -13h-33q-12 0 -12 13zM186 1376q0 -27 18.5 -44t43.5 -17h305v-1254 q0 -25 18.5 -43t42.5 -18h191q25 0 43 18.5t18 42.5v1254h305q25 0 43.5 17.5t18.5 43.5v176q0 27 -18.5 45.5t-43.5 18.5h-923q-25 0 -43.5 -18.5t-18.5 -45.5v-176zM1073 983q0 -25 17.5 -43t44.5 -18h163q27 0 44.5 18t17.5 43v166q0 25 -17.5 43t-44.5 18h-163 q-27 0 -44.5 -18t-17.5 -43v-166zM1188 1051v30q0 12 12 13h33q12 0 12 -13v-30q0 -12 -12 -13h-33q-12 0 -12 13z" />
<glyph unicode="&#xa7;" horiz-adv-x="1415" d="M55 631q0 -25 17.5 -43.5t44.5 -18.5h127v-127q0 -27 18.5 -44t42.5 -17h129v-131q0 -25 18.5 -43.5t43.5 -18.5h129v-127q0 -25 17 -43t44 -18h164q27 0 44 18.5t17 42.5v166q0 27 -17 45.5t-44 18.5h-127v127q0 25 -18.5 43t-42.5 18h-127v127q0 27 -18.5 44.5 t-43.5 17.5h-117v80h127q25 0 43.5 17t18.5 44v127h127q27 0 44 18.5t17 42.5v127h117q27 0 44 18.5t17 43.5v178q0 27 -17 44t-44 17h-178q-25 0 -43.5 -17t-18.5 -44v-115h-127h-8q4 13 4 21v166q0 25 -17.5 43t-43.5 18h-164q-27 0 -44 -18.5t-17 -42.5v-166 q0 -25 17 -43.5t44 -18.5h164h8q-4 -12 -4 -22v-127h-127q-27 0 -44.5 -17.5t-17.5 -44.5v-127h-116q-27 0 -44.5 -18t-17.5 -43v-178zM307 1337v31q0 12 12 12h33q12 0 13 -12v-31q0 -12 -13 -12h-33q-12 0 -12 12zM1012 1270q0 -25 17.5 -43.5t43.5 -18.5h164 q27 0 44 18.5t17 43.5v166q0 25 -17 43t-44 18h-164q-27 0 -44 -18.5t-17 -42.5v-166zM1126 1337v31q0 12 13 12h32q12 0 13 -12v-31q0 -12 -13 -12h-32q-12 0 -13 12z" />
<glyph unicode="&#xa9;" horiz-adv-x="1835" d="M205 61q0 -25 18.5 -43t42.5 -18h178q25 0 43.5 18.5t18.5 42.5v117h127q27 0 44 18.5t17 43.5v127h129q27 0 44.5 18t17.5 43v129h78v-115q0 -27 18 -44t43 -17h127v-129q0 -27 18.5 -45.5t42.5 -18.5h129v-127q0 -25 18.5 -43t45.5 -18h164q25 0 43 18.5t18 42.5v168 q0 25 -18.5 43.5t-42.5 18.5h-127v127q0 25 -18.5 43t-43.5 18h-127v127q0 27 -18 44.5t-45 17.5h-129v127q0 27 -17.5 45t-44.5 18h-176q-25 0 -43 -18.5t-18 -44.5v-113h-129q-25 0 -43.5 -18.5t-18.5 -42.5v-129h-127q-27 0 -44 -18.5t-17 -45.5v-127h-117 q-25 0 -43 -17.5t-18 -43.5v-179zM285 1288q0 -25 18.5 -43t44.5 -18h305v-78h-116q-27 0 -44.5 -17.5t-17.5 -44.5v-178q0 -25 17.5 -43t44.5 -18h178q25 0 43 18.5t18 42.5v117h268v-117q0 -25 17.5 -43t44.5 -18h164q27 0 44 18.5t17 42.5v168q0 25 -17.5 43.5 t-43.5 18.5h-117v75h305q27 0 45.5 18.5t18.5 45.5v115q0 27 -18.5 45t-45.5 18h-305v76h117q27 0 44 18.5t17 42.5v179q0 25 -17.5 43t-43.5 18h-178q-25 0 -43.5 -18.5t-18.5 -42.5v-117h-266v117q0 25 -17.5 43t-44.5 18h-165q-27 0 -44.5 -18.5t-17.5 -42.5v-164 q0 -27 17.5 -45.5t44.5 -18.5h116v-78h-305q-27 0 -45 -18t-18 -43v-117zM492 1337v31q0 12 12 12h33q12 0 12 -12v-31q0 -12 -12 -12h-33q-12 0 -12 12zM1311 1337v31q0 12 12 12h33q12 0 12 -12v-31q0 -12 -12 -12h-33q-12 0 -12 12z" />
<glyph unicode="&#xac;" horiz-adv-x="2377" d="M72 61q0 -25 18.5 -43t44.5 -18h176q27 0 45.5 18.5t18.5 42.5v1063h76v-114q0 -27 18 -45.5t43 -18.5h367q27 0 44 18.5t17 45.5v102h68v-1051q0 -25 18 -43t45 -18h174q27 0 45.5 18.5t18.5 42.5v1491q0 27 -18.5 45.5t-45.5 18.5h-174q-27 0 -45 -18.5t-18 -45.5v-114 h-129q-25 0 -43.5 -18.5t-18.5 -43.5v-127h-266v127q0 25 -17.5 43.5t-44.5 18.5h-114v114q0 27 -18.5 45.5t-45.5 18.5h-176q-27 0 -45 -18.5t-18 -45.5v-1491zM1325 811v178q0 25 17.5 43.5t43.5 18.5h127v127q0 27 18.5 44t43.5 17h129v131q0 25 18.5 43.5t42.5 18.5h129 v127q0 25 17.5 43t44.5 18h164q27 0 44 -18.5t17 -42.5v-166q0 -27 -17.5 -45.5t-43.5 -18.5h-127v-127q0 -25 -18.5 -43t-43.5 -18h-127v-127q0 -27 -18.5 -44.5t-42.5 -17.5h-117v-80h127q25 0 43.5 -17t18.5 -44v-127h127q27 0 44 -18.5t17 -42.5v-127h117q27 0 44 -18.5 t17 -43.5v-168h100q14 0 24.5 -10t10.5 -25v-196q0 -14 -10 -24.5t-25 -10.5h-196q-14 0 -24.5 10t-10.5 25v160h-108q-25 0 -43.5 17t-18.5 44v115h-127q-25 0 -43 18.5t-18 44.5v127h-127q-27 0 -44.5 17.5t-17.5 44.5v127h-117q-27 0 -44 18t-17 43z" />
<glyph unicode="&#xad;" horiz-adv-x="1419" d="M186 739q0 -25 18.5 -43t43.5 -18h923q25 0 43.5 18.5t18.5 42.5v166q0 27 -18.5 45.5t-43.5 18.5h-923q-25 0 -43.5 -18.5t-18.5 -45.5v-166z" />
<glyph unicode="&#xae;" horiz-adv-x="1835" d="M205 61q0 -25 18.5 -43t42.5 -18h178q25 0 43.5 18.5t18.5 42.5v117h127q27 0 44 18.5t17 43.5v127h129q27 0 44.5 18t17.5 43v129h78v-115q0 -27 18 -44t43 -17h127v-129q0 -27 18.5 -45.5t42.5 -18.5h129v-127q0 -25 18.5 -43t45.5 -18h164q25 0 43 18.5t18 42.5v168 q0 25 -18.5 43.5t-42.5 18.5h-127v127q0 25 -18.5 43t-43.5 18h-127v127q0 27 -18 44.5t-45 17.5h-129v127q0 27 -17.5 45t-44.5 18h-176q-25 0 -43 -18.5t-18 -44.5v-113h-129q-25 0 -43.5 -18.5t-18.5 -42.5v-129h-127q-27 0 -44 -18.5t-17 -45.5v-127h-117 q-25 0 -43 -17.5t-18 -43.5v-179zM356 1270q0 -25 17.5 -43.5t44.5 -18.5h164q27 0 44 18.5t17 43.5v166q0 25 -17.5 43t-43.5 18h-164q-27 0 -44.5 -18.5t-17.5 -42.5v-166zM471 1337v31q0 12 12 12h33q12 0 12 -12v-31q0 -12 -12 -12h-33q-12 0 -12 12zM1176 1270 q0 -25 17 -43.5t44 -18.5h164q27 0 44 18.5t17 43.5v166q0 25 -17.5 43t-43.5 18h-164q-27 0 -44 -18.5t-17 -42.5v-166zM1290 1337v31q0 12 13 12h32q12 0 13 -12v-31q0 -12 -13 -12h-32q-12 0 -13 12z" />
<glyph unicode="&#xb0;" d="M195 1198q0 -27 18 -44t45 -17h354q27 0 44.5 17t17.5 44v354q0 27 -17.5 45.5t-44.5 18.5h-354q-27 0 -45 -18.5t-18 -45.5v-354zM330 1298v156q0 27 26 27h156q27 0 27 -27v-156q0 -27 -27 -26h-156q-27 0 -26 26z" />
<glyph unicode="&#xb6;" horiz-adv-x="1888" d="M92 61q0 -25 18.5 -43t45.5 -18h176q27 0 45 18.5t18 42.5v117h127q25 0 43.5 18.5t18.5 43.5v127h127q25 0 43 18t18 45v127h127q27 0 44.5 17.5t17.5 43.5v127h131q25 0 43 18.5t18 43.5v129h113q27 0 45 18.5t18 42.5v177q0 27 -18.5 44t-44.5 17h-174 q-27 0 -45.5 -17.5t-18.5 -43.5v-113h-129q-25 0 -43 -18.5t-18 -45.5v-129h-127q-25 0 -43.5 -17t-18.5 -44v-127h-127q-27 0 -44 -18.5t-17 -43.5v-126h-129q-25 0 -43.5 -18.5t-18.5 -43.5v-129h-114q-27 0 -45.5 -17.5t-18.5 -43.5v-179zM459 1081q0 -25 17.5 -43 t43.5 -18h164q27 0 44 18t17 43v166q0 25 -17 43.5t-44 18.5h-164q-27 0 -44 -18.5t-17 -43.5v-166zM573 1149v31q0 12 13 12h32q12 0 13 -12v-31q0 -12 -13 -12h-32q-12 0 -13 12zM1524 1081q0 -25 17.5 -43t43.5 -18h164q27 0 44 18t17 43v166q0 25 -17 43.5t-44 18.5 h-164q-27 0 -44 -18.5t-17 -43.5v-166zM1638 1149v31q0 12 13 12h32q12 0 13 -12v-31q0 -12 -13 -12h-32q-12 0 -13 12z" />
<glyph unicode="&#xc4;" d="M195 61q0 -25 18 -43t45 -18h176q27 0 45.5 18.5t18.5 42.5v484h632v-484q0 -25 18.5 -43t45.5 -18h174q27 0 45.5 18.5t18.5 42.5v1303q0 27 -18.5 44t-45.5 17h-127v127q0 27 -17.5 45.5t-43.5 18.5h-746q-25 0 -43 -18.5t-18 -45.5v-114h-115q-27 0 -45 -18.5 t-18 -43.5v-1315zM195 1737q0 -25 18 -43.5t45 -18.5h164q25 0 43 18.5t18 43.5v164q0 27 -18.5 45t-42.5 18h-164q-27 0 -45 -18.5t-18 -44.5v-164zM508 881v434h622v-434h-622zM1137 1729q0 -25 18.5 -43.5t42.5 -18.5h166q25 0 43 18.5t18 43.5v165q0 25 -18 43.5 t-43 18.5h-166q-25 0 -43 -18.5t-18 -43.5v-165z" />
<glyph unicode="&#xcc;" d="M195 250q0 -25 18 -43.5t45 -18.5h127v-127q0 -25 17.5 -43t43.5 -18h555q27 0 44.5 18.5t17.5 42.5v117h80v-117q0 -25 18.5 -43t42.5 -18h164q27 0 45.5 18.5t18.5 42.5v166q0 27 -18.5 45.5t-45.5 18.5h-113v76h113q27 0 45.5 18t18.5 43v936q0 27 -18.5 44t-45.5 17 h-127v127q0 27 -17.5 45.5t-43.5 18.5h-746q-25 0 -43 -18.5t-18 -45.5v-114h-115q-27 0 -45 -18.5t-18 -43.5v-1126zM498 301v1014h632v-826h-77v117q0 27 -18.5 44.5t-43.5 17.5h-168q-25 0 -43 -17.5t-18 -44.5v-166q0 -27 18.5 -44t42.5 -17h117v-78h-442z" />
<glyph unicode="&#xcd;" horiz-adv-x="1189" d="M49 1270q0 -25 17.5 -43.5t44.5 -18.5h163q27 0 44.5 18.5t17.5 43.5v166q0 25 -17.5 43t-44.5 18h-163q-27 0 -44.5 -18.5t-17.5 -42.5v-166zM164 1337v31q0 12 12 12h33q12 0 12 -12v-31q0 -12 -12 -12h-33q-12 0 -12 12zM868 1270q0 -25 17.5 -43.5t44.5 -18.5h164 q27 0 44 18.5t17 43.5v166q0 25 -17.5 43t-43.5 18h-164q-27 0 -44.5 -18.5t-17.5 -42.5v-166zM983 1337v31q0 12 12 12h33q12 0 12 -12v-31q0 -12 -12 -12h-33q-12 0 -12 12z" />
<glyph unicode="&#xd6;" horiz-adv-x="1628" d="M195 1743q0 -27 19 -44.5t46 -17.5h164q25 0 43 17.5t18 44.5v164q0 27 -19.5 44t-43.5 17h-164q-27 0 -45 -17.5t-18 -43.5v-164zM197 61q0 -25 19.5 -43t45.5 -18h1110q27 0 44.5 18.5t17.5 42.5v1491q0 27 -18.5 45.5t-45.5 18.5h-1108q-29 0 -47 -18.5t-18 -45.5 v-1491zM510 313v990h612v-990h-612zM1137 1735q0 -25 19.5 -43.5t43.5 -18.5h166q25 0 43 18.5t18 43.5v166q0 25 -19 43t-44 18h-164q-27 0 -45 -18.5t-18 -42.5v-166z" />
<glyph unicode="&#xdc;" d="M195 250q0 -25 18 -43.5t45 -18.5h127v-127q0 -25 17.5 -43t43.5 -18h748q25 0 43 18.5t18 42.5v117h113q27 0 45.5 18.5t18.5 43.5v1312q0 27 -18.5 45.5t-45.5 18.5h-174q-27 0 -45.5 -18.5t-18.5 -45.5v-1251h-645v1251q0 27 -18 45.5t-43 18.5h-166q-27 0 -45 -18.5 t-18 -45.5v-1302zM197 1759q0 -25 18 -43t45 -18h164q25 0 43 18.5t18 42.5v164q0 27 -18 45.5t-43 18.5h-164q-27 0 -45 -18.5t-18 -45.5v-164zM1139 1751q0 -25 18.5 -43t42.5 -18h166q25 0 43 18t18 43v166q0 25 -18 43t-43 18h-166q-25 0 -43 -18t-18 -43v-166z" />
<glyph unicode="&#xdf;" horiz-adv-x="1812" d="M195 63q0 -27 18 -45t45 -18h1110q27 0 45.5 18.5t18.5 44.5v177q0 27 -18.5 44t-45.5 17h-860v256h117q25 0 43 17.5t18 43.5v130h127q25 0 43 18t18 43v127h127q27 0 44.5 18.5t17.5 42.5v129h117q27 0 44 17.5t17 44.5v366q0 25 -17.5 43.5t-43.5 18.5h-179 q-25 0 -43 -18.5t-18 -43.5v-305h-127q-25 0 -43 -18.5t-18 -42.5v-127h-127q-27 0 -44.5 -18.5t-17.5 -45.5v-127h-131q-25 0 -43 -17t-18 -44v-129h-113q-27 0 -45 -18.5t-18 -43.5v-555zM561 1577q0 -25 17.5 -43t44.5 -18h163q27 0 44.5 18t17.5 43v166q0 25 -17.5 43 t-44.5 18h-163q-27 0 -44.5 -18.5t-17.5 -42.5v-166zM676 1645v30q0 12 12 13h33q12 0 12 -13v-30q0 -12 -12 -13h-33q-12 0 -12 13zM1380 1577q0 -25 17.5 -43t44.5 -18h164q27 0 44 18t17 43v166q0 25 -17.5 43t-43.5 18h-164q-27 0 -44.5 -18.5t-17.5 -42.5v-166z M1495 1645v30q0 12 12 13h33q12 0 12 -13v-30q0 -12 -12 -13h-33q-12 0 -12 13z" />
<glyph unicode="&#xe4;" d="M195 61q0 -25 18 -43t45 -18h176q27 0 45.5 18.5t18.5 42.5v484h632v-484q0 -25 18.5 -43t45.5 -18h174q27 0 45.5 18.5t18.5 42.5v1303q0 27 -18.5 44t-45.5 17h-127v127q0 27 -17.5 45.5t-43.5 18.5h-746q-25 0 -43 -18.5t-18 -45.5v-114h-115q-27 0 -45 -18.5 t-18 -43.5v-1315zM197 1759q0 -25 18 -43t45 -18h164q25 0 43 18.5t18 42.5v164q0 27 -18 45.5t-43 18.5h-164q-27 0 -45 -18.5t-18 -45.5v-164zM508 881v434h622v-434h-622zM1139 1751q0 -25 18.5 -43t42.5 -18h166q25 0 43 18t18 43v166q0 25 -18 43t-43 18h-166 q-25 0 -43 -18t-18 -43v-166z" />
<glyph unicode="&#xf6;" d="M195 61q0 -25 18 -43t45 -18h1110q27 0 45.5 18.5t18.5 42.5v1491q0 27 -18.5 45.5t-45.5 18.5h-1110q-27 0 -45 -18.5t-18 -45.5v-1491zM195 1737q0 -25 18 -43.5t45 -18.5h164q25 0 43 18.5t18 43.5v164q0 27 -18.5 45t-42.5 18h-164q-27 0 -45 -18.5t-18 -44.5v-164z M508 313v990h610v-990h-610zM1137 1729q0 -25 18.5 -43.5t42.5 -18.5h166q25 0 43 18.5t18 43.5v165q0 25 -18 43.5t-43 18.5h-166q-25 0 -43 -18.5t-18 -43.5v-165z" />
<glyph unicode="&#xfc;" d="M195 250q0 -25 18 -43.5t45 -18.5h127v-127q0 -25 17.5 -43t43.5 -18h748q25 0 43 18.5t18 42.5v117h113q27 0 45.5 18.5t18.5 43.5v1312q0 27 -18.5 45.5t-45.5 18.5h-174q-27 0 -45.5 -18.5t-18.5 -45.5v-1251h-645v1251q0 27 -18 45.5t-43 18.5h-166q-27 0 -45 -18.5 t-18 -45.5v-1302zM197 1759q0 -25 18 -43t45 -18h164q25 0 43 18.5t18 42.5v164q0 27 -18 45.5t-43 18.5h-164q-27 0 -45 -18.5t-18 -45.5v-164zM1139 1751q0 -25 18.5 -43t42.5 -18h166q25 0 43 18t18 43v166q0 25 -18 43t-43 18h-166q-25 0 -43 -18t-18 -43v-166z" />
<glyph unicode="&#x2000;" horiz-adv-x="993" />
<glyph unicode="&#x2001;" horiz-adv-x="1987" />
<glyph unicode="&#x2002;" horiz-adv-x="993" />
<glyph unicode="&#x2003;" horiz-adv-x="1987" />
<glyph unicode="&#x2004;" horiz-adv-x="662" />
<glyph unicode="&#x2005;" horiz-adv-x="496" />
<glyph unicode="&#x2006;" horiz-adv-x="331" />
<glyph unicode="&#x2007;" horiz-adv-x="331" />
<glyph unicode="&#x2008;" horiz-adv-x="248" />
<glyph unicode="&#x2009;" horiz-adv-x="397" />
<glyph unicode="&#x200a;" horiz-adv-x="110" />
<glyph unicode="&#x2010;" horiz-adv-x="1419" d="M186 739q0 -25 18.5 -43t43.5 -18h923q25 0 43.5 18.5t18.5 42.5v166q0 27 -18.5 45.5t-43.5 18.5h-923q-25 0 -43.5 -18.5t-18.5 -45.5v-166z" />
<glyph unicode="&#x2011;" horiz-adv-x="1419" d="M186 739q0 -25 18.5 -43t43.5 -18h923q25 0 43.5 18.5t18.5 42.5v166q0 27 -18.5 45.5t-43.5 18.5h-923q-25 0 -43.5 -18.5t-18.5 -45.5v-166z" />
<glyph unicode="&#x2012;" horiz-adv-x="1419" d="M186 739q0 -25 18.5 -43t43.5 -18h923q25 0 43.5 18.5t18.5 42.5v166q0 27 -18.5 45.5t-43.5 18.5h-923q-25 0 -43.5 -18.5t-18.5 -45.5v-166z" />
<glyph unicode="&#x2013;" horiz-adv-x="1419" d="M186 629q0 -25 18.5 -43.5t43.5 -18.5h923q25 0 43.5 18.5t18.5 43.5v166q0 27 -18.5 45t-43.5 18h-923q-25 0 -43.5 -18.5t-18.5 -44.5v-166z" />
<glyph unicode="&#x2014;" horiz-adv-x="1419" d="M186 629q0 -25 18.5 -43.5t43.5 -18.5h923q25 0 43.5 18.5t18.5 43.5v166q0 27 -18.5 45t-43.5 18h-923q-25 0 -43.5 -18.5t-18.5 -44.5v-166z" />
<glyph unicode="&#x2018;" horiz-adv-x="612" d="M152 1382q0 -25 18 -43t43 -18h186q25 0 43.5 18.5t18.5 42.5v355q0 25 -18.5 43t-43.5 18h-186q-25 0 -43 -18.5t-18 -42.5v-355z" />
<glyph unicode="&#x2019;" horiz-adv-x="612" d="M152 1382q0 -25 18 -43t43 -18h186q25 0 43.5 18.5t18.5 42.5v355q0 25 -18.5 43t-43.5 18h-186q-25 0 -43 -18.5t-18 -42.5v-355z" />
<glyph unicode="&#x201a;" horiz-adv-x="612" d="M152 -164q0 -25 18 -43t43 -18h186q25 0 43.5 18.5t18.5 42.5v354q0 25 -18.5 43.5t-43.5 18.5h-186q-25 0 -43 -18.5t-18 -43.5v-354z" />
<glyph unicode="&#x201c;" horiz-adv-x="612" d="M152 1382q0 -25 18 -43t43 -18h186q25 0 43.5 18.5t18.5 42.5v355q0 25 -18.5 43t-43.5 18h-186q-25 0 -43 -18.5t-18 -42.5v-355z" />
<glyph unicode="&#x201d;" horiz-adv-x="612" d="M152 1382q0 -25 18 -43t43 -18h186q25 0 43.5 18.5t18.5 42.5v355q0 25 -18.5 43t-43.5 18h-186q-25 0 -43 -18.5t-18 -42.5v-355z" />
<glyph unicode="&#x201e;" horiz-adv-x="612" d="M152 -164q0 -25 18 -43t43 -18h186q25 0 43.5 18.5t18.5 42.5v354q0 25 -18.5 43.5t-43.5 18.5h-186q-25 0 -43 -18.5t-18 -43.5v-354z" />
<glyph unicode="&#x2022;" horiz-adv-x="1835" d="M205 649q0 -25 18.5 -43t42.5 -18h127v-127q0 -25 18.5 -43.5t43.5 -18.5h127v-127q0 -27 18 -44t45 -17h129v-127q0 -27 17.5 -45.5t44.5 -18.5h176q25 0 43 18.5t18 45.5v113h129q25 0 43.5 18t18.5 43v129h127q27 0 44 18.5t17 45.5v127h117q25 0 43 17t18 44v178 q0 25 -18.5 43.5t-42.5 18.5h-178q-25 0 -43.5 -18.5t-18.5 -43.5v-117h-127q-27 0 -44 -18t-17 -43v-127h-129q-27 0 -44.5 -18.5t-17.5 -42.5v-129h-78v114q0 27 -18 44.5t-43 17.5h-127v129q0 27 -18.5 45t-42.5 18h-129v127q0 25 -18.5 43.5t-45.5 18.5h-164 q-25 0 -43 -18.5t-18 -43.5v-168zM336 1516q0 -25 17.5 -43.5t43.5 -18.5h164q27 0 44.5 18.5t17.5 43.5v165q0 25 -17.5 43.5t-44.5 18.5h-164q-27 0 -44 -18.5t-17 -43.5v-165zM451 1583v33q0 12 12 12h33q12 0 12 -12v-33q0 -12 -12 -12h-33q-12 0 -12 12zM1155 1516 q0 -25 17.5 -43.5t44.5 -18.5h163q27 0 44.5 18.5t17.5 43.5v165q0 25 -17.5 43.5t-44.5 18.5h-163q-27 0 -44.5 -18.5t-17.5 -43.5v-165zM1270 1583v33q0 12 12 12h33q12 0 12 -12v-33q0 -12 -12 -12h-33q-12 0 -12 12z" />
<glyph unicode="&#x202f;" horiz-adv-x="397" />
<glyph unicode="&#x205f;" horiz-adv-x="496" />
<glyph unicode="&#x20ac;" d="M-4 702q0 -16 11 -30.5t34 -14.5h154v-407q0 -25 18 -43.5t45 -18.5h127v-127q0 -25 17.5 -43t43.5 -18h748q25 0 43 18.5t18 42.5v117h113q27 0 45.5 18.5t18.5 43.5v178q0 25 -18.5 43t-45.5 18h-174q-27 0 -45.5 -18.5t-18.5 -42.5v-117h-632v356h874q23 0 34 14.5 t11 30.5t-11 31t-34 15h-874v135h874q23 0 34 14t11 31q0 16 -11 30.5t-34 14.5h-874v342h645v-117q0 -27 18.5 -44t42.5 -17h164q27 0 45.5 17t18.5 44v166q0 27 -18.5 44t-45.5 17h-127v127q0 27 -17.5 45.5t-43.5 18.5h-746q-25 0 -43 -18.5t-18 -45.5v-114h-115 q-27 0 -45 -18.5t-18 -43.5v-403h-154q-23 0 -34 -14.5t-11 -30.5t11 -30.5t34 -14.5h154v-135h-154q-23 0 -34 -14.5t-11 -31.5z" />
<glyph unicode="&#x25fc;" horiz-adv-x="1617" d="M0 0v1618h1618v-1618h-1618z" />
</font>
</defs>
</svg>
